<?xml version="1.0" encoding="UTF-8" standalone="no"?>
<!-- Created with Inkscape (http://www.inkscape.org/) -->

<svg
   width="3200mm"
   height="300mm"
   viewBox="0 0 3200 300"
   version="1.1"
   id="svg1"
   inkscape:version="1.4.3 (0d15f75, 2025-12-25)"
   sodipodi:docname="background.svg"
   xmlns:inkscape="http://www.inkscape.org/namespaces/inkscape"
   xmlns:sodipodi="http://sodipodi.sourceforge.net/DTD/sodipodi-0.dtd"
   xmlns="http://www.w3.org/2000/svg"
   xmlns:svg="http://www.w3.org/2000/svg">
  <sodipodi:namedview
     id="namedview1"
     pagecolor="#ffffff"
     bordercolor="#000000"
     borderopacity="0.25"
     inkscape:showpageshadow="2"
     inkscape:pageopacity="0.0"
     inkscape:pagecheckerboard="false"
     inkscape:deskcolor="#d1d1d1"
     inkscape:document-units="mm"
     labelstyle="default"
     showgrid="true"
     inkscape:zoom="0.16020115"
     inkscape:cx="8779.5875"
     inkscape:cy="121.72197"
     inkscape:window-width="1728"
     inkscape:window-height="1080"
     inkscape:window-x="0"
     inkscape:window-y="37"
     inkscape:window-maximized="0"
     inkscape:current-layer="layer1">
    <inkscape:grid
       id="grid1"
       units="mm"
       originx="0"
       originy="0"
       spacingx="533.3333"
       spacingy="15"
       empcolor="#0099e5"
       empopacity="0.30196078"
       color="#0099e5"
       opacity="0.14901961"
       empspacing="1"
       enabled="true"
       visible="true" />
  </sodipodi:namedview>
  <defs
     id="defs1">
    <linearGradient
       id="swatch7"
       inkscape:swatch="solid">
      <stop
         style="stop-color:#000000;stop-opacity:1;"
         offset="0"
         id="stop7" />
    </linearGradient>
  </defs>
  <g
     inkscape:label="Layer 1"
     inkscape:groupmode="layer"
     id="layer1">
    <path
       style="fill:none;fill-opacity:1;fill-rule:evenodd;stroke:#000000;stroke-width:2;stroke-dasharray:none;stroke-opacity:1"
       d="m -12.914181,111.40442 c 590.857891,-0.62626 143.701551,103.81272 282.481281,80.44502 86.94196,-14.63927 92.43184,-84.44327 34.74779,-45.56945 -110.24799,74.29716 111.69439,9.92858 129.58722,-3.31676 18.30719,-13.55208 -34.95776,-14.26853 -79.79039,46.93158 -14.63959,19.9842 64.74964,-15.98568 64.74964,-15.98568 0,0 5.34627,6.47487 -20.4468,23.8173 -62.06536,41.73075 -63.74974,152.47679 85.06848,34.83426 173.31068,-137.004109 389.59544,-125.31322 432.39345,-124.95271 28.71572,0.24189 25.61363,-23.184702 25.45812,-41.241642 -0.0901,-10.46198 -19.13995,-19.511717 -43.78868,-19.511717 -26.72535,0 -51.04783,4.08019 -50.82093,18.37206 0.0648,4.08065 19.95517,21.62226 91.92951,0.54052 7.79074,-2.28196 24.97896,2.23571 24.97896,12.18953 0,15.99737 0.69239,38.915039 0.10005,53.502339 -0.82645,20.35281 -11.39545,19.56432 -27.86198,20.03815 -41.4397,1.19245 -52.19109,1.54534 -76.35443,0.59983 -24.16334,-0.9455 -42.09036,4.30987 -40.59794,-15.71555 1.24481,-16.70291 1.33659,-42.973249 1.33659,-59.082379 0,-7.64016 5.29566,-11.671529 23.97462,-12.10887 128.08727,-2.99898 243.08752,96.296669 380.64162,107.332739 137.5541,11.03607 30.5571,70.25212 107.2486,69.92756 76.6916,-0.32455 -16.6336,-21.40533 -46.4866,-32.47007 -8.4961,-2.08473 -8.3613,-7.48661 -1.9659,-10.16374 11.9584,-5.00586 19.464,-7.7785 34.4289,-13.68073 14.965,-5.90223 21.1368,-5.73995 32.8048,0.0966 11.668,5.83657 24.427,12.17776 30.0241,15.61324 5.5971,3.43548 5.3442,6.33512 0.4744,8.1921 -16.387,6.24883 -65.9392,-6.06203 -49.1374,-6.3776 65.7042,-1.23405 44.2886,71.24002 46.6522,85.09903 0,0 209.7418,-226.591175 291.2449,-162.38755 81.5031,64.20362 91.5819,72.92109 120.5784,98.25797 5.1885,4.53365 13.2354,20.72681 12.8695,21.02603 -0.4737,0.38741 -13.6585,-1.23737 -22.7355,-7.28722 -24.6101,-16.40273 -89.4174,-66.45412 -117.502,-89.20891 -10.7189,-8.68466 -6.1218,-13.31021 -1.3383,-17.51679 9.0044,-7.91843 20.4871,4.36347 12.9381,5.02917 -4.6881,0.41342 -10.5068,5.12676 -8.6145,10.46865 2.6844,7.57779 171.8412,131.42977 202.7858,129.75844 46.8074,-2.52811 37.8146,-32.7113 61.59,-40.43437 35.8333,-11.63991 16.976,117.5622 91.4932,-1.24948 132.6328,-211.472315 292.2986,3.89055 282.3923,16.75118 -9.9063,12.86063 -67.2951,-14.47013 -121.7691,-30.58036 -54.474,-16.11022 60.9163,-29.44165 114.0783,-39.62421 53.162,-10.18256 -124.384,128.0261 -92.342,56.42455 32.042,-71.60155 -13.9634,-166.396561 538.0936,-150.186567 338.0187,9.925208 149.1456,98.051147 78.4522,112.014567 0,0 -98.0235,-210.142931 30.7525,-126.221477 128.776,83.921457 -166.3845,82.588727 -87.1505,145.443827 79.2339,62.85511 505.3109,-2.19859 505.3109,-2.19859"
       id="path1"
       sodipodi:nodetypes="csssscsssssssssszssszzsszzzssczsssssssssszzzzscszc" />
  </g>
</svg>
